<svg viewBox="0 0 60 60" fill="none"><path d="M59.985 39.8551L57.1255 20.6441C57.0792 15.0657 53.693 9.89303 47.8159 6.43765C42.9483 3.57605 36.6213 2 30.0001 2C23.3786 2 17.0515 3.57605 12.1838 6.43765C6.3069 9.89303 2.92054 15.0657 2.87437 20.6441L0.0148828 39.8551C0.00503905 39.9216 0 39.9887 0 40.056C0 45.7049 3.76452 50.936 10.3284 54.408C15.7022 57.2504 22.6883 58.8158 30.0001 58.8158C37.3116 58.8158 44.2978 57.2504 49.6716 54.408C56.2354 50.936 60 45.7049 60 40.056C59.9999 39.9888 59.9949 39.9216 59.985 39.8551ZM13.5668 8.78995C18.0215 6.17105 23.8576 4.72871 30.0001 4.72871C36.1424 4.72871 41.9785 6.17105 46.4331 8.78995C51.4956 11.7663 54.3993 16.1293 54.3993 20.7599C54.3993 25.3906 51.4957 29.7535 46.4332 32.7299C41.9785 35.3488 36.1424 36.7911 30.0001 36.7911C23.8577 36.7911 18.0215 35.3488 13.5669 32.7299C8.5044 29.7536 5.60073 25.3906 5.60073 20.7599C5.60073 16.1293 8.50428 11.7664 13.5668 8.78995ZM48.3956 51.996C43.4079 54.6342 36.875 56.0871 30.0001 56.0871C23.125 56.0871 16.592 54.6342 11.6044 51.996C6.00374 49.0333 2.77453 44.7218 2.72917 40.1535L4.60757 27.5342C6.17225 30.4612 8.75283 33.0645 12.1841 35.0819C17.0517 37.9434 23.3787 39.5195 30.0001 39.5195C36.6213 39.5195 42.9485 37.9434 47.816 35.0819C51.2473 33.0645 53.8279 30.461 55.3925 27.5342L57.2709 40.1535C57.2255 44.7219 53.9963 49.0335 48.3956 51.996Z" fill="#f1cdb3"/><path d="M30 34.062C39.353 34.062 47.608 30.443 50.54 25.057 51.29 23.68 51.671 22.234 51.671 20.76 51.671 17.068 49.319 13.652 45.05 11.142 41.009 8.766 35.664 7.458 30 7.458 24.337 7.458 18.992 8.766 14.95 11.142 10.681 13.652 8.329 17.068 8.329 20.76 8.329 22.235 8.71 23.68 9.46 25.056 12.392 30.443 20.647 34.062 30 34.062ZM30 31.333C22.155 31.333 15.028 28.515 12.256 24.401 15.029 20.289 22.157 17.473 30 17.473 37.844 17.473 44.971 20.289 47.745 24.401 44.973 28.515 37.846 31.333 30 31.333ZM11.058 20.76C11.058 18.074 12.931 15.494 16.333 13.495 19.962 11.361 24.815 10.187 30 10.187 35.185 10.187 40.038 11.361 43.667 13.495 47.069 15.494 48.942 18.074 48.942 20.76 48.942 20.999 48.926 21.238 48.896 21.476 45.133 17.37 37.966 14.745 30 14.745 22.034 14.745 14.867 17.37 11.104 21.476 11.074 21.239 11.058 20.999 11.058 20.76ZM30 41.77C29.816 41.77 29.633 41.808 29.463 41.88 29.294 41.953 29.141 42.059 29.013 42.192 28.124 43.124 25.225 46.337 25.225 48.592 25.225 51.225 27.367 53.367 30 53.367 32.633 53.367 34.775 51.225 34.775 48.592 34.775 46.337 31.876 43.124 30.987 42.192 30.86 42.059 30.706 41.953 30.537 41.88 30.367 41.808 30.185 41.77 30 41.77ZM30 50.638C28.872 50.638 27.954 49.72 27.954 48.592 27.954 47.986 28.906 46.522 30 45.194 31.094 46.523 32.047 47.986 32.047 48.592 32.047 49.72 31.128 50.638 30 50.638Z" fill="#f1cdb3"/><path d="M23.884 23.898H23.464C22.71 23.898 22.099 24.509 22.099 25.262 22.099 26.016 22.71 26.626 23.464 26.626H23.884C24.638 26.626 25.249 26.016 25.249 25.262 25.249 24.509 24.638 23.898 23.884 23.898ZM40.074 23.898H30.342C29.588 23.898 28.978 24.509 28.978 25.262 28.978 26.016 29.588 26.626 30.342 26.626H40.074C40.828 26.626 41.438 26.016 41.438 25.262 41.438 24.509 40.828 23.898 40.074 23.898Z" fill="#f1cdb3"/></svg>