<svg viewBox="0 0 60 60" fill="none"><path d="M57.297 10.2511C55.7379 8.99675 53.5393 7.88136 50.7617 6.93613C45.1984 5.04273 37.825 4 29.9997 4C22.1744 4 14.8011 5.04285 9.23787 6.93613C6.4603 7.88136 4.26163 8.99675 2.70257 10.2511C0.909373 11.6942 0 13.2863 0 14.983V28.0989C0 29.7957 0.909373 31.3878 2.70269 32.8308C4.26175 34.0851 6.4603 35.2005 9.23799 36.1458C14.5225 37.9443 21.4409 38.9745 28.8281 39.0733V43.7755H24.7869C24.3392 41.4099 22.2567 39.6156 19.7629 39.6156C16.9435 39.6156 14.6499 41.9093 14.6499 44.7284C14.6499 45.9542 15.0847 47.1148 15.8539 48.0249C15.075 48.9466 14.6484 50.1147 14.6499 51.3214C14.6499 54.1407 16.9435 56.4343 19.7629 56.4343C22.2567 56.4343 24.3392 54.6398 24.7869 52.2744H35.2131C35.6608 54.6399 37.7433 56.4343 40.2371 56.4343C43.0565 56.4343 45.3501 54.1406 45.3501 51.3214C45.3501 50.0956 44.9153 48.935 44.1461 48.0249C44.925 47.1032 45.3516 45.9351 45.3501 44.7284C45.3501 41.9091 43.0565 39.6156 40.2371 39.6156C37.7433 39.6156 35.6608 41.41 35.2131 43.7755H31.1719V39.0733C38.5591 38.9745 45.4775 37.9443 50.762 36.1458C53.5396 35.2005 55.7382 34.0851 57.2973 32.8308C59.0906 31.3878 60 29.7957 60 28.0989V14.983C59.9996 13.2863 59.0903 11.6942 57.297 10.2511ZM36.3022 46.1193C36.4615 46.1193 36.6191 46.0868 36.7655 46.0238C36.9118 45.9608 37.0438 45.8686 37.1533 45.7528C37.2628 45.6371 37.3476 45.5003 37.4024 45.3507C37.4573 45.2011 37.481 45.0419 37.4723 44.8828C37.4694 44.8314 37.4679 44.78 37.4677 44.7286C37.4677 43.2016 38.71 41.9594 40.2369 41.9594C41.7639 41.9594 43.0062 43.2017 43.0062 44.7286C43.0062 45.6643 42.5377 46.5303 41.753 47.0453C41.5905 47.152 41.4571 47.2974 41.3648 47.4684C41.2725 47.6394 41.2242 47.8307 41.2242 48.025C41.2242 48.2194 41.2725 48.4107 41.3648 48.5817C41.4571 48.7527 41.5905 48.8981 41.753 49.0047C42.5377 49.5198 43.0062 50.3858 43.0062 51.3215C43.0062 52.8485 41.7639 54.0906 40.2369 54.0906C38.71 54.0906 37.4677 52.8483 37.4677 51.3215C37.4677 51.2697 37.4696 51.2184 37.4723 51.1673C37.4811 51.0082 37.4574 50.8489 37.4026 50.6993C37.3478 50.5497 37.263 50.4128 37.1535 50.297C37.044 50.1813 36.912 50.0891 36.7656 50.0261C36.6192 49.9631 36.4615 49.9307 36.3022 49.9307H23.6975C23.5382 49.9308 23.3805 49.9633 23.2342 50.0263C23.0878 50.0893 22.9559 50.1815 22.8463 50.2972C22.7368 50.413 22.6521 50.5498 22.5972 50.6994C22.5424 50.849 22.5186 51.0082 22.5274 51.1673C22.5301 51.2184 22.5319 51.2697 22.5319 51.3215C22.5319 52.8485 21.2896 54.0906 19.7627 54.0906C18.2357 54.0906 16.9934 52.8483 16.9934 51.3215C16.9934 50.3858 17.462 49.5198 18.2466 49.0047C18.4091 48.8981 18.5425 48.7527 18.6348 48.5817C18.7271 48.4107 18.7755 48.2194 18.7755 48.025C18.7755 47.8307 18.7271 47.6394 18.6348 47.4684C18.5425 47.2974 18.4091 47.152 18.2466 47.0453C17.462 46.5303 16.9934 45.6643 16.9934 44.7286C16.9934 43.2016 18.2357 41.9594 19.7627 41.9594C21.2896 41.9594 22.5319 43.2017 22.5319 44.7286C22.5319 44.7803 22.5301 44.8317 22.5274 44.8828C22.5185 45.0419 22.5422 45.2011 22.597 45.3508C22.6519 45.5004 22.7366 45.6373 22.8462 45.753C22.9557 45.8688 23.0877 45.961 23.2341 46.0239C23.3804 46.0869 23.5381 46.1194 23.6975 46.1193H36.3022ZM29.9998 36.7383C28.4435 36.7383 27.1772 35.472 27.1772 33.9157C27.1772 32.3593 28.4435 31.0931 29.9998 31.0931C31.5562 31.0931 32.8224 32.3593 32.8224 33.9157C32.8224 35.472 31.5562 36.7383 29.9998 36.7383ZM57.6559 28.0989C57.6559 31.8067 48.3045 35.8985 34.3965 36.6248C34.9005 35.8111 35.1671 34.8727 35.1661 33.9156C35.1661 33.5463 35.1264 33.1862 35.0525 32.8386C39.6006 32.5404 43.8255 31.8617 47.3495 30.8562C47.9718 30.6785 48.3325 30.0301 48.1548 29.4077C47.9772 28.7853 47.329 28.4248 46.7064 28.6024C43.0899 29.6344 38.6789 30.3074 33.9211 30.5577C32.9729 29.4519 31.5673 28.7494 29.9998 28.7494C28.4241 28.7494 27.0118 29.4593 26.0634 30.5753C22.8385 30.4214 19.7739 30.0771 16.9503 29.5459C16.3149 29.426 15.7017 29.8448 15.582 30.4808C15.4624 31.1169 15.881 31.7294 16.5171 31.8492C19.1492 32.3444 21.9775 32.6832 24.9418 32.8625C24.8698 33.2089 24.8335 33.5619 24.8336 33.9157C24.8327 34.8729 25.0993 35.8112 25.6033 36.6249C11.6952 35.8986 2.34375 31.8068 2.34375 28.0989V19.4139L2.35968 19.4272C2.47205 19.5254 2.58637 19.6213 2.70257 19.7149C2.85923 19.8402 3.01885 19.9617 3.18128 20.0794L3.18374 20.0811C3.27117 20.1448 3.36035 20.2081 3.45117 20.271L3.49171 20.2989C3.57714 20.3576 3.66374 20.4161 3.7521 20.4741C3.76991 20.4858 3.7882 20.4975 3.80624 20.5092C3.89542 20.5672 3.98566 20.6251 4.07777 20.6824L4.11749 20.7068C5.50241 21.5632 7.21592 22.3418 9.23776 23.0299C14.801 24.9233 22.1743 25.9661 29.9997 25.9661C37.8251 25.9661 45.1984 24.9233 50.7617 23.0299C52.7837 22.3418 54.4974 21.5631 55.8824 20.7066L55.9216 20.6825C56.0139 20.6251 56.1042 20.5672 56.1935 20.5091L56.2474 20.4742C56.3358 20.4162 56.4225 20.3577 56.5079 20.299L56.5485 20.2711C56.6393 20.2082 56.7285 20.1449 56.8159 20.0813L56.8184 20.0795C56.9808 19.9619 57.1404 19.8403 57.2971 19.715C57.4132 19.6214 57.5276 19.5255 57.64 19.4274L57.6559 19.414V28.0989ZM7.52928 19.8543C8.5501 19.3876 9.94639 18.8517 11.8024 18.3313C16.8453 16.9173 23.3081 16.1387 29.9998 16.1387C36.6916 16.1387 43.1543 16.9174 48.1971 18.3313C50.0533 18.8516 51.4497 19.3875 52.4704 19.8543C47.6207 22.0156 39.6821 23.6224 29.9998 23.6224C20.3176 23.6224 12.379 22.0154 7.52928 19.8543ZM57.6485 15.1548C57.6434 15.2232 57.6352 15.2913 57.624 15.359L57.6225 15.3696C57.6098 15.4416 57.594 15.5129 57.575 15.5835C57.5616 15.6345 57.5465 15.6851 57.53 15.7353L57.5204 15.7647C57.4946 15.839 57.4658 15.9122 57.4342 15.9843C57.4218 16.0128 57.4083 16.0411 57.3948 16.0696C57.3679 16.1263 57.3395 16.1828 57.3088 16.2387L57.3006 16.2537C56.813 17.1338 55.8925 17.9036 54.9784 18.5047C53.7646 17.8055 51.8179 16.9124 48.8301 16.0746C43.587 14.6046 36.8997 13.7952 29.9999 13.7952C23.1002 13.7952 16.413 14.6047 11.1697 16.0747C8.18202 16.9124 6.23542 17.8055 5.02147 18.5049C4.10753 17.9038 3.18703 17.1339 2.69929 16.2538L2.69109 16.2388C2.66039 16.1828 2.63203 16.1263 2.60496 16.0695C2.5916 16.0411 2.57812 16.0129 2.56582 15.9845C2.55527 15.9606 2.54531 15.9366 2.53546 15.9126C2.51542 15.8633 2.49632 15.8141 2.47945 15.7649C2.47605 15.7552 2.473 15.7452 2.46972 15.7355C2.44857 15.6715 2.42993 15.6068 2.41382 15.5414C2.39958 15.4847 2.38738 15.4275 2.37726 15.3699L2.37574 15.3592C2.36456 15.2915 2.35638 15.2234 2.35125 15.1551C2.34653 15.0978 2.34403 15.0404 2.34375 14.983C2.34375 10.8967 13.7017 6.34375 29.9998 6.34375C46.298 6.34375 57.6559 10.8967 57.6559 14.983C57.6559 15.0402 57.6529 15.0975 57.6485 15.1548Z" fill="#f1cdb3"/><path d="M48.177 11.643C48.131 11.416 48.02 11.208 47.857 11.043 47.802 10.989 47.743 10.94 47.679 10.898 47.551 10.813 47.407 10.754 47.257 10.723 47.106 10.693 46.95 10.693 46.799 10.723 46.724 10.739 46.651 10.761 46.579 10.79 46.509 10.819 46.441 10.856 46.378 10.898 46.313 10.94 46.254 10.989 46.199 11.043 46.145 11.097 46.097 11.158 46.053 11.221 45.968 11.349 45.909 11.493 45.879 11.643 45.864 11.719 45.856 11.796 45.856 11.872 45.856 11.949 45.864 12.025 45.879 12.101 45.909 12.252 45.968 12.395 46.053 12.523 46.097 12.587 46.145 12.646 46.199 12.701 46.254 12.755 46.314 12.803 46.378 12.847 46.441 12.889 46.509 12.925 46.579 12.955 46.651 12.984 46.724 13.006 46.799 13.021 46.875 13.037 46.952 13.045 47.028 13.045 47.104 13.045 47.182 13.037 47.257 13.021 47.332 13.006 47.406 12.984 47.476 12.955 47.546 12.925 47.614 12.889 47.679 12.847 47.742 12.803 47.803 12.755 47.857 12.701 47.911 12.646 47.96 12.587 48.002 12.523 48.087 12.395 48.146 12.252 48.177 12.101 48.192 12.025 48.2 11.949 48.2 11.872 48.2 11.795 48.192 11.719 48.177 11.643ZM43.483 9.861C39.446 9.101 34.85 8.699 30.194 8.699 23.749 8.699 17.519 9.464 12.65 10.854 12.028 11.031 11.668 11.68 11.845 12.302 11.992 12.817 12.461 13.153 12.971 13.153 13.078 13.153 13.186 13.138 13.293 13.108 17.958 11.776 23.96 11.043 30.193 11.043 34.707 11.043 39.153 11.431 43.05 12.164 43.686 12.283 44.298 11.865 44.418 11.229 44.538 10.593 44.119 9.98 43.483 9.861ZM14.121 29.609C14.106 29.534 14.084 29.46 14.054 29.389 14.025 29.319 13.989 29.251 13.946 29.187 13.904 29.123 13.855 29.063 13.8 29.009 13.746 28.955 13.686 28.906 13.622 28.863 13.559 28.821 13.491 28.785 13.42 28.756 13.35 28.727 13.276 28.704 13.201 28.689 13.05 28.659 12.894 28.659 12.743 28.689 12.668 28.703 12.594 28.727 12.524 28.756 12.452 28.785 12.384 28.821 12.321 28.863 12.257 28.906 12.197 28.955 12.143 29.009 12.089 29.063 12.04 29.123 11.998 29.187 11.955 29.251 11.919 29.319 11.89 29.389 11.861 29.46 11.838 29.534 11.823 29.609 11.808 29.684 11.8 29.762 11.8 29.838 11.8 29.991 11.831 30.143 11.89 30.285 11.919 30.357 11.955 30.425 11.998 30.488 12.04 30.553 12.089 30.612 12.143 30.666 12.197 30.72 12.257 30.769 12.321 30.812 12.384 30.855 12.452 30.89 12.524 30.919 12.594 30.949 12.668 30.972 12.743 30.986 12.818 31.001 12.895 31.01 12.971 31.01 13.048 31.01 13.125 31.001 13.201 30.986 13.276 30.971 13.35 30.949 13.42 30.919 13.491 30.891 13.559 30.854 13.622 30.812 13.686 30.769 13.746 30.721 13.8 30.666 13.909 30.558 13.996 30.428 14.054 30.285 14.113 30.144 14.144 29.991 14.143 29.838 14.143 29.761 14.136 29.684 14.121 29.609Z" fill="#f1cdb3"/></svg>