<svg viewBox="0 0 60 60" fill="none"><path d="M52.8978 25.4978L47.1429 9.7473V1.42852C47.1429 0.639609 46.5032 0 45.7144 0H14.2858C13.4969 0 12.8573 0.639727 12.8573 1.42852V9.74719L7.10214 25.4978C6.41927 27.3636 6.07039 29.335 6.07147 31.3219V55.0765C6.07147 57.7913 8.28011 60 10.995 60H49.005C51.7199 60 53.9285 57.7913 53.9285 55.0765V31.3219C53.9285 29.329 53.5817 27.3694 52.8978 25.4978ZM15.7142 2.85715H44.2857V8.57145H15.7142V2.85715ZM51.0715 50.1321H30.9077C30.1188 50.1321 29.4792 50.7718 29.4792 51.5606C29.4792 52.3495 30.1189 52.9891 30.9077 52.9891H51.0715V55.0763C51.0715 56.2157 50.1445 57.1427 49.005 57.1427H10.995C9.85558 57.1427 8.92862 56.2158 8.92862 55.0763V31.3219C8.92774 29.6695 9.21788 28.03 9.78573 26.4783L15.2848 11.4286H44.7152L50.2142 26.4783C50.7821 28.03 51.0722 29.6695 51.0714 31.3219L51.0715 50.1321Z" fill="#f1cdb3"/><path d="M35.617 33.805C35.151 30.877 32.608 28.632 29.551 28.632 26.493 28.632 23.95 30.877 23.484 33.805 21.067 34.799 19.486 37.276 19.69 39.966 19.918 42.964 22.351 45.392 25.349 45.615 26.507 45.701 27.657 45.463 28.675 44.926 29.232 44.633 29.87 44.633 30.426 44.926 31.309 45.391 32.291 45.633 33.289 45.632 33.443 45.632 33.597 45.626 33.752 45.615 36.75 45.392 39.183 42.964 39.411 39.966 39.615 37.276 38.034 34.799 35.617 33.805ZM36.562 39.75C36.441 41.35 35.142 42.647 33.54 42.766 32.918 42.813 32.301 42.685 31.759 42.399 31.078 42.039 30.32 41.852 29.551 41.852 28.781 41.852 28.023 42.039 27.343 42.399 26.8 42.685 26.185 42.812 25.561 42.766 23.96 42.647 22.661 41.35 22.539 39.75 22.414 38.106 23.53 36.612 25.133 36.275 25.459 36.206 25.75 36.026 25.957 35.765 26.164 35.505 26.274 35.18 26.267 34.847L26.265 34.775C26.265 32.963 27.739 31.489 29.551 31.489 31.362 31.489 32.836 32.963 32.836 34.77L32.834 34.847C32.827 35.18 32.937 35.505 33.144 35.765 33.351 36.026 33.642 36.206 33.968 36.275 35.572 36.612 36.687 38.106 36.562 39.75ZM29.551 25.775C32.111 25.775 34.193 23.692 34.193 21.132 34.193 18.572 32.111 16.489 29.551 16.489 26.99 16.489 24.908 18.572 24.908 21.132 24.908 23.692 26.991 25.775 29.551 25.775ZM29.551 19.347C30.535 19.347 31.336 20.148 31.336 21.132 31.336 22.117 30.535 22.918 29.551 22.918 28.566 22.918 27.765 22.117 27.765 21.132 27.765 20.148 28.566 19.347 29.551 19.347ZM24.194 26.656C24.194 24.096 22.111 22.013 19.551 22.013 16.991 22.013 14.908 24.096 14.908 26.656 14.908 29.216 16.99 31.299 19.551 31.299 22.111 31.299 24.194 29.216 24.194 26.656ZM19.551 28.442C18.566 28.442 17.765 27.641 17.765 26.656 17.765 25.671 18.566 24.87 19.551 24.87 20.535 24.87 21.336 25.671 21.336 26.656 21.336 27.641 20.535 28.442 19.551 28.442ZM39.551 22.013C36.99 22.013 34.908 24.096 34.908 26.656 34.908 29.216 36.991 31.299 39.551 31.299 42.111 31.299 44.193 29.216 44.193 26.656 44.193 24.096 42.111 22.013 39.551 22.013ZM39.551 28.442C38.566 28.442 37.765 27.641 37.765 26.656 37.765 25.671 38.566 24.87 39.551 24.87 40.535 24.87 41.336 25.671 41.336 26.656 41.336 27.641 40.535 28.442 39.551 28.442ZM24.693 50.132H24.347C23.558 50.132 22.918 50.772 22.918 51.561 22.918 52.35 23.558 52.989 24.347 52.989H24.693C25.482 52.989 26.122 52.35 26.122 51.561 26.122 50.772 25.482 50.132 24.693 50.132Z" fill="#f1cdb3"/></svg>