<svg viewBox="0 0 60 60" fill="none"><path d="M57.9526 19.9663L30.9804 0.226256C30.7796 0.0792462 30.5371 0 30.2882 0C30.0393 0 29.7969 0.0792462 29.5961 0.226256L2.62395 19.9663C2.10176 20.3485 1.9882 21.0818 2.37047 21.6041L5.89582 26.4211C5.98668 26.5453 6.10113 26.6504 6.23263 26.7304C6.36412 26.8104 6.5101 26.8637 6.6622 26.8872C6.8143 26.9107 6.96955 26.9041 7.11908 26.8676C7.26861 26.8311 7.40947 26.7655 7.53363 26.6745L8.59746 25.8959V58.828C8.59746 59.4751 9.12223 59.9998 9.76934 59.9998H50.8691C51.5162 59.9998 52.041 59.4751 52.041 58.828V25.9413L53.0429 26.6745C53.1671 26.7655 53.308 26.831 53.4575 26.8675C53.607 26.904 53.7622 26.9106 53.9143 26.8871C54.0664 26.8636 54.2123 26.8103 54.3438 26.7303C54.4753 26.6504 54.5898 26.5453 54.6806 26.4211L58.206 21.6041C58.5884 21.0816 58.4748 20.3485 57.9526 19.9663ZM49.6972 53.0856H21.9716C21.3245 53.0856 20.7997 53.6103 20.7997 54.2574C20.7997 54.9045 21.3245 55.4293 21.9716 55.4293H49.6972V57.6562H10.9411V25.105H38.3843C39.0314 25.105 39.5562 24.5803 39.5562 23.9332C39.5562 23.2861 39.0314 22.7613 38.3843 22.7613H12.8813L30.2883 10.0213L49.6972 24.226V53.0856ZM53.4814 24.0911L30.9804 7.62348C30.7796 7.47638 30.5372 7.39712 30.2883 7.39719C30.0394 7.39709 29.7969 7.47636 29.5962 7.62348L7.095 24.0911L4.95387 21.1654L30.2884 2.62391L55.6229 21.1654L53.4814 24.0911Z" fill="#f1cdb3"/><path d="M43.756 23.705C43.74 23.63 43.717 23.556 43.688 23.484 43.658 23.414 43.622 23.346 43.58 23.283 43.538 23.218 43.489 23.159 43.434 23.105 43.214 22.886 42.917 22.762 42.606 22.761 42.298 22.761 41.995 22.886 41.778 23.105 41.724 23.158 41.674 23.218 41.632 23.283 41.59 23.346 41.554 23.414 41.524 23.484 41.495 23.556 41.472 23.63 41.458 23.705 41.442 23.78 41.434 23.857 41.434 23.933 41.434 24.009 41.442 24.087 41.458 24.162 41.472 24.236 41.495 24.31 41.524 24.382 41.554 24.452 41.59 24.52 41.632 24.584 41.674 24.648 41.724 24.708 41.778 24.762 41.831 24.816 41.891 24.865 41.956 24.907 42.019 24.949 42.087 24.986 42.158 25.015 42.229 25.044 42.302 25.068 42.378 25.082 42.453 25.097 42.53 25.105 42.606 25.105 42.682 25.105 42.76 25.097 42.834 25.082 42.91 25.067 42.983 25.045 43.054 25.015 43.125 24.986 43.193 24.949 43.256 24.907 43.321 24.865 43.38 24.816 43.434 24.762 43.488 24.708 43.538 24.648 43.58 24.584 43.622 24.52 43.658 24.452 43.688 24.382 43.717 24.311 43.74 24.237 43.756 24.162 43.771 24.087 43.778 24.009 43.778 23.933 43.778 23.857 43.771 23.78 43.756 23.705ZM18.899 54.028C18.884 53.953 18.861 53.88 18.832 53.809 18.803 53.739 18.766 53.67 18.724 53.606 18.682 53.542 18.633 53.483 18.579 53.428 18.525 53.374 18.465 53.326 18.401 53.283 18.273 53.198 18.129 53.139 17.979 53.108 17.828 53.078 17.672 53.078 17.521 53.108 17.447 53.123 17.373 53.146 17.301 53.175 17.231 53.204 17.163 53.241 17.1 53.283 17.035 53.325 16.976 53.374 16.922 53.428 16.867 53.482 16.819 53.543 16.775 53.606 16.69 53.734 16.631 53.878 16.601 54.028 16.585 54.104 16.579 54.181 16.579 54.257 16.578 54.411 16.608 54.563 16.667 54.705 16.697 54.776 16.733 54.844 16.775 54.908 16.819 54.971 16.867 55.031 16.922 55.086 16.976 55.14 17.036 55.19 17.1 55.232 17.163 55.274 17.231 55.31 17.301 55.339 17.373 55.369 17.447 55.391 17.521 55.406 17.597 55.421 17.674 55.43 17.75 55.43 17.982 55.429 18.208 55.36 18.401 55.232 18.465 55.189 18.525 55.141 18.579 55.086 18.633 55.031 18.682 54.972 18.724 54.908 18.852 54.715 18.921 54.489 18.922 54.257 18.922 54.181 18.914 54.104 18.899 54.028ZM44.845 30.574C44.845 29.58 44.455 28.648 43.747 27.948 43.046 27.255 42.088 26.868 41.11 26.876 40.802 26.879 40.495 26.921 40.197 27 38.027 27.555 35.907 28.29 33.859 29.197 32.689 28.92 31.491 28.781 30.288 28.781 29.611 28.781 28.929 28.826 28.258 28.913 27.74 28.982 27.226 29.076 26.718 29.197 24.67 28.29 22.55 27.556 20.381 27 20.37 26.997 20.36 26.994 20.349 26.992 19.196 26.698 18.006 26.962 17.086 27.717 16.166 28.472 15.674 29.587 15.738 30.775 15.802 31.994 15.922 33.21 16.097 34.418 16.254 35.501 16.455 36.578 16.699 37.645 16.336 38.573 16.083 39.541 15.946 40.528 15.888 40.94 15.86 41.355 15.859 41.771 15.859 47.017 20.434 51.285 26.057 51.285H34.52C37.603 51.285 40.486 50.004 42.432 47.769 44.215 45.721 44.996 43.149 44.631 40.527 44.553 39.965 44.437 39.409 44.285 38.862 44.17 38.45 44.034 38.044 43.879 37.645 44.395 35.388 44.716 33.09 44.839 30.778 44.843 30.709 44.845 30.642 44.845 30.574ZM42.499 30.647 42.499 30.651C42.376 32.949 42.046 35.231 41.512 37.47 41.454 37.713 41.476 37.969 41.574 38.2 41.752 38.62 41.904 39.051 42.027 39.491 42.151 39.937 42.245 40.391 42.309 40.85 42.579 42.79 41.995 44.7 40.663 46.23 39.163 47.953 36.924 48.941 34.52 48.941H26.056C21.726 48.941 18.202 45.725 18.202 41.771 18.202 41.468 18.224 41.157 18.267 40.85 18.394 39.938 18.641 39.047 19.002 38.201 19.101 37.97 19.122 37.714 19.064 37.47 18.797 36.351 18.581 35.22 18.416 34.082 18.251 32.944 18.138 31.799 18.078 30.651 18.054 30.215 18.235 29.806 18.572 29.529 18.819 29.326 19.12 29.22 19.429 29.22 19.535 29.22 19.641 29.232 19.747 29.257L19.77 29.263C21.949 29.819 24.075 30.567 26.123 31.499 26.37 31.611 26.649 31.635 26.911 31.565 27.454 31.42 28.005 31.311 28.562 31.237 29.131 31.163 29.712 31.125 30.288 31.125 31.436 31.125 32.571 31.273 33.664 31.565 33.927 31.634 34.205 31.611 34.452 31.499 36.507 30.565 38.64 29.815 40.827 29.257 40.928 29.233 41.03 29.221 41.133 29.22H41.148C41.499 29.22 41.844 29.363 42.099 29.615 42.227 29.74 42.328 29.889 42.397 30.054 42.466 30.219 42.501 30.396 42.501 30.574 42.501 30.598 42.5 30.622 42.499 30.647Z" fill="#f1cdb3"/><path d="M32.486 43.566C31.921 43.566 31.46 43.106 31.46 42.54 31.46 41.893 30.936 41.368 30.288 41.368 29.641 41.368 29.116 41.893 29.116 42.54V42.583C29.116 43.149 28.656 43.609 28.091 43.609 27.443 43.609 26.919 44.134 26.919 44.781 26.919 45.428 27.443 45.953 28.091 45.953 28.941 45.953 29.719 45.636 30.313 45.114 30.92 45.628 31.69 45.911 32.486 45.91 33.133 45.91 33.658 45.385 33.658 44.738 33.658 44.091 33.133 43.566 32.486 43.566ZM26.192 38.166 24.451 37.369C24.298 37.299 24.132 37.262 23.963 37.262 23.795 37.262 23.628 37.299 23.475 37.369L21.734 38.166C21.146 38.436 20.887 39.131 21.157 39.72 21.221 39.86 21.312 39.986 21.425 40.09 21.538 40.195 21.67 40.277 21.814 40.33 21.958 40.384 22.112 40.409 22.266 40.403 22.419 40.397 22.571 40.361 22.71 40.297L23.963 39.723 25.216 40.297C25.804 40.567 26.5 40.308 26.769 39.72 27.039 39.131 26.78 38.436 26.192 38.166ZM38.842 38.166 37.102 37.369C36.949 37.298 36.782 37.262 36.614 37.262 36.445 37.262 36.279 37.298 36.126 37.369L34.385 38.166C33.796 38.436 33.538 39.131 33.808 39.72 34.077 40.308 34.773 40.567 35.361 40.297L36.614 39.723 37.866 40.297C38.019 40.367 38.185 40.404 38.354 40.404 38.798 40.404 39.223 40.15 39.42 39.72 39.689 39.131 39.431 38.436 38.842 38.166Z" fill="#f1cdb3"/></svg>