<svg viewBox="0 0 60 60" fill="none"><path d="M37.1303 17.1814V11.7391C37.1303 11.0188 36.5463 10.4348 35.826 10.4348H34.8477V1.3043C34.8477 0.583945 34.2637 0 33.5434 0H25.0651C24.3448 0 23.7608 0.583945 23.7608 1.3043V10.4347H22.7825C22.0622 10.4347 21.4782 11.0187 21.4782 11.739V17.1813C16.8977 19.0078 13.6521 23.4879 13.6521 28.712V58.6956C13.6521 59.4159 14.236 59.9999 14.9564 59.9999H43.6521C44.3725 59.9999 44.9564 59.4159 44.9564 58.6956V28.7121C44.9563 23.4879 41.7107 19.0078 37.1303 17.1814ZM26.3694 2.60871H32.239V10.4348H26.3694V2.60871ZM24.0867 13.0434H34.5214V16.3043H24.0867V13.0434ZM42.3476 57.3913H16.2607V28.7121C16.2607 23.3088 20.6565 18.913 26.0597 18.913H32.5486C37.9519 18.913 42.3476 23.3088 42.3476 28.7121V57.3913Z" fill="#f1cdb3"/><path d="M37.7825 27.3913H20.8259C20.1056 27.3913 19.5216 27.9752 19.5216 28.6956V52.826C19.5216 53.5464 20.1056 54.1303 20.8259 54.1303H37.7825C38.5028 54.1303 39.0868 53.5464 39.0868 52.826V44.6287C39.0868 43.9084 38.5028 43.3244 37.7825 43.3244C37.0621 43.3244 36.4782 43.9084 36.4782 44.6287V51.5217H22.1303V30H36.4782V34.1287C36.4782 34.8491 37.0621 35.433 37.7825 35.433C38.5028 35.433 39.0868 34.8491 39.0868 34.1287V28.6957C39.0868 27.9752 38.5028 27.3913 37.7825 27.3913Z" fill="#f1cdb3"/><path d="M37.782 38.065C37.062 38.065 36.478 38.648 36.478 39.369V39.499C36.478 40.22 37.062 40.804 37.782 40.804 38.503 40.804 39.087 40.22 39.087 39.499V39.369C39.087 38.648 38.503 38.065 37.782 38.065ZM27.992 41.151C25.835 41.151 24.079 42.907 24.079 45.064 24.079 47.222 25.835 48.977 27.992 48.977 30.15 48.977 31.905 47.222 31.905 45.064 31.905 42.907 30.15 41.151 27.992 41.151ZM27.992 46.369C27.273 46.369 26.688 45.784 26.688 45.064 26.688 44.345 27.273 43.76 27.992 43.76 28.711 43.76 29.297 44.345 29.297 45.064 29.297 45.784 28.712 46.369 27.992 46.369ZM34.846 35.984C34.846 33.827 33.09 32.071 30.933 32.071 28.775 32.071 27.02 33.827 27.02 35.984 27.02 38.142 28.775 39.897 30.933 39.897 33.09 39.897 34.846 38.142 34.846 35.984ZM30.933 37.289C30.213 37.289 29.628 36.704 29.628 35.984 29.628 35.265 30.213 34.68 30.933 34.68 31.652 34.68 32.237 35.265 32.237 35.984 32.237 36.704 31.652 37.289 30.933 37.289Z" fill="#f1cdb3"/></svg>